<?xml version="1.0" standalone="no"?>
<!DOCTYPE svg PUBLIC "-//W3C//DTD SVG 20010904//EN"
 "http://www.w3.org/TR/2001/REC-SVG-20010904/DTD/svg10.dtd">
<svg version="1.0" xmlns="http://www.w3.org/2000/svg"
 width="300.000000pt" height="300.000000pt" viewBox="0 0 300.000000 300.000000"
 preserveAspectRatio="xMidYMid meet">
<metadata>
Created by potrace 1.14, written by Peter Selinger 2001-2017
</metadata>
<g transform="translate(0.000000,300.000000) scale(0.100000,-0.100000)"
fill="#000000" stroke="none">
<path d="M2084 2299 c-299 -29 -503 -202 -530 -449 -21 -200 15 -337 115 -433
90 -87 193 -125 476 -176 209 -38 269 -64 303 -131 54 -108 8 -211 -118 -260
-89 -34 -262 -39 -385 -11 -109 26 -208 67 -278 118 -27 19 -51 33 -52 31 -8
-8 -155 -271 -153 -273 2 0 22 -16 45 -33 62 -49 220 -120 330 -149 90 -25
114 -27 288 -27 177 0 196 2 278 27 116 34 199 82 269 154 99 101 137 224 124
410 -12 174 -90 290 -246 366 -76 37 -172 65 -383 110 -210 46 -277 94 -285
206 -7 95 27 139 141 181 42 16 82 22 154 23 128 1 217 -21 350 -89 l104 -52
69 138 c52 103 66 141 57 148 -7 5 -50 30 -97 54 -108 58 -251 104 -360 118
-92 11 -97 11 -216 -1z"/>
<path d="M170 2130 l0 -160 220 0 220 0 0 -725 0 -725 165 0 165 0 0 725 0
725 245 0 245 0 0 160 0 160 -630 0 -630 0 0 -160z"/>
</g>
</svg>
